M48
; DRILL file {KiCad (5.1.7)-1} date 01/27/21 22:35:51
; FORMAT={-:-/ absolute / inch / decimal}
; #@! TF.CreationDate,2021-01-27T22:35:51+01:00
; #@! TF.GenerationSoftware,Kicad,Pcbnew,(5.1.7)-1
FMAT,2
INCH
T1C0.0157
T2C0.0197
T3C0.0315
T4C0.0409
T5C0.0433
T6C0.0508
T7C0.0520
T8C0.0591
T9C0.1260
%
G90
G05
T1
X5.84Y-1.63
T2
X6.4055Y-1.25
X6.4332Y-1.1832
X6.4332Y-1.3168
X6.5Y-1.1555
X6.5Y-1.3445
X6.5668Y-1.1832
X6.5668Y-1.3168
X6.5945Y-1.25
X3.5055Y-1.25
X3.5332Y-1.1832
X3.5332Y-1.3168
X3.6Y-1.1555
X3.6Y-1.3445
X3.6668Y-1.1832
X3.6668Y-1.3168
X3.6945Y-1.25
X6.4055Y-4.0
X6.4332Y-3.9332
X6.4332Y-4.0668
X6.5Y-3.9055
X6.5Y-4.0945
X6.5668Y-3.9332
X6.5668Y-4.0668
X6.5945Y-4.0
X3.5055Y-4.0
X3.5332Y-3.9332
X3.5332Y-4.0668
X3.6Y-3.9055
X3.6Y-4.0945
X3.6668Y-3.9332
X3.6668Y-4.0668
X3.6945Y-4.0
T3
X4.85Y-4.0
X4.85Y-4.1
X4.85Y-4.2
X4.85Y-3.55
X4.85Y-3.85
X4.85Y-2.4
X4.85Y-2.5
X4.85Y-2.6
X4.85Y-1.15
X4.85Y-1.45
X3.5416Y-3.22
X3.64Y-3.22
X4.85Y-1.95
X4.85Y-2.25
X4.85Y-1.6
X4.85Y-1.7
X4.85Y-1.8
X4.85Y-2.75
X4.85Y-3.05
X4.85Y-3.2
X4.85Y-3.3
X4.85Y-3.4
T4
X5.15Y-1.628
X5.15Y-1.728
X5.15Y-1.828
X5.15Y-1.928
X5.15Y-2.028
X5.15Y-2.128
X5.15Y-2.228
X5.15Y-2.328
X5.15Y-2.428
X5.15Y-2.528
X5.15Y-2.628
X5.15Y-2.728
X5.15Y-2.828
X5.15Y-2.928
X5.15Y-3.028
X5.15Y-3.128
X5.15Y-3.228
X5.15Y-3.328
X5.15Y-3.428
X6.15Y-1.628
X6.15Y-1.728
X6.15Y-1.828
X6.15Y-1.928
X6.15Y-2.028
X6.15Y-2.128
X6.15Y-2.228
X6.15Y-2.328
X6.15Y-2.428
X6.15Y-2.528
X6.15Y-2.628
X6.15Y-2.728
X6.15Y-2.828
X6.15Y-2.928
X6.15Y-3.028
X6.15Y-3.128
X6.15Y-3.228
X6.15Y-3.328
X6.15Y-3.428
T5
X4.15Y-2.6
X4.45Y-2.6
X4.15Y-3.4
X4.45Y-3.4
X4.15Y-4.2
X4.45Y-4.2
X4.15Y-1.8
X4.45Y-1.8
T6
X3.9811Y-3.8
X3.9811Y-3.0
X3.9811Y-2.2
X3.9811Y-1.4
T7
X4.0598Y-3.5638
X4.0598Y-4.0362
X4.5402Y-3.5638
X4.5402Y-4.0362
X4.0598Y-2.7638
X4.0598Y-3.2362
X4.5402Y-2.7638
X4.5402Y-3.2362
X4.0598Y-1.9638
X4.0598Y-2.4362
X4.5402Y-1.9638
X4.5402Y-2.4362
X4.0598Y-1.1638
X4.0598Y-1.6362
X4.5402Y-1.1638
X4.5402Y-1.6362
T8
X6.5Y-3.2469
X6.5Y-3.4437
X6.5Y-3.6406
X6.5Y-2.4969
X6.5Y-2.6937
X6.5Y-2.8906
X5.4594Y-4.05
X5.6563Y-4.05
X5.8531Y-4.05
X5.4469Y-1.2
X5.6437Y-1.2
X5.8406Y-1.2
X3.59Y-3.4831
X3.59Y-3.68
X3.6Y-1.5752
X3.6Y-1.772
X3.6Y-1.9689
X3.6Y-2.1657
X3.6Y-2.3626
X3.6Y-2.5594
X3.6Y-2.7563
X3.6Y-2.9531
X6.5Y-1.6126
X6.5Y-1.8094
X6.5Y-2.0063
X6.5Y-2.2031
T9
X6.5Y-1.25
X3.6Y-1.25
X6.5Y-4.0
X3.6Y-4.0
T0
M30
