%TF.GenerationSoftware,KiCad,Pcbnew,(5.1.7)-1*%
%TF.CreationDate,2021-01-27T22:35:06+01:00*%
%TF.ProjectId,plant-watering,706c616e-742d-4776-9174-6572696e672e,rev?*%
%TF.SameCoordinates,Original*%
%TF.FileFunction,Copper,L1,Top*%
%TF.FilePolarity,Positive*%
%FSLAX46Y46*%
G04 Gerber Fmt 4.6, Leading zero omitted, Abs format (unit mm)*
G04 Created by KiCad (PCBNEW (5.1.7)-1) date 2021-01-27 22:35:06*
%MOMM*%
%LPD*%
G01*
G04 APERTURE LIST*
%TA.AperFunction,ComponentPad*%
%ADD10O,2.200000X2.200000*%
%TD*%
%TA.AperFunction,ComponentPad*%
%ADD11R,2.200000X2.200000*%
%TD*%
%TA.AperFunction,ComponentPad*%
%ADD12R,1.600000X1.600000*%
%TD*%
%TA.AperFunction,ComponentPad*%
%ADD13C,1.600000*%
%TD*%
%TA.AperFunction,ComponentPad*%
%ADD14C,0.800000*%
%TD*%
%TA.AperFunction,ComponentPad*%
%ADD15C,6.400000*%
%TD*%
%TA.AperFunction,ComponentPad*%
%ADD16O,3.200000X2.200000*%
%TD*%
%TA.AperFunction,ComponentPad*%
%ADD17O,2.200000X3.200000*%
%TD*%
%TA.AperFunction,ComponentPad*%
%ADD18O,1.600000X1.600000*%
%TD*%
%TA.AperFunction,ComponentPad*%
%ADD19R,1.500000X1.500000*%
%TD*%
%TA.AperFunction,ComponentPad*%
%ADD20C,1.500000*%
%TD*%
%TA.AperFunction,ComponentPad*%
%ADD21C,1.560000*%
%TD*%
%TA.AperFunction,ComponentPad*%
%ADD22R,1.560000X1.560000*%
%TD*%
%TA.AperFunction,ComponentPad*%
%ADD23R,1.980000X1.980000*%
%TD*%
%TA.AperFunction,ComponentPad*%
%ADD24C,1.935000*%
%TD*%
%TA.AperFunction,ComponentPad*%
%ADD25C,1.980000*%
%TD*%
%TA.AperFunction,ViaPad*%
%ADD26C,0.800000*%
%TD*%
%TA.AperFunction,Conductor*%
%ADD27C,1.000000*%
%TD*%
%TA.AperFunction,Conductor*%
%ADD28C,0.250000*%
%TD*%
G04 APERTURE END LIST*
D10*
%TO.P,D4,2*%
%TO.N,RelayS4*%
X105410000Y-45720000D03*
D11*
%TO.P,D4,1*%
%TO.N,+5V*%
X113030000Y-45720000D03*
%TD*%
D12*
%TO.P,C1,1*%
%TO.N,+5V*%
X92456000Y-81788000D03*
D13*
%TO.P,C1,2*%
%TO.N,GND*%
X89956000Y-81788000D03*
%TD*%
D14*
%TO.P,REF\u002A\u002A,1*%
%TO.N,N/C*%
X93137056Y-99902944D03*
X91440000Y-99200000D03*
X89742944Y-99902944D03*
X89040000Y-101600000D03*
X89742944Y-103297056D03*
X91440000Y-104000000D03*
X93137056Y-103297056D03*
X93840000Y-101600000D03*
D15*
X91440000Y-101600000D03*
%TD*%
%TO.P,REF\u002A\u002A,1*%
%TO.N,N/C*%
X165100000Y-101600000D03*
D14*
X167500000Y-101600000D03*
X166797056Y-103297056D03*
X165100000Y-104000000D03*
X163402944Y-103297056D03*
X162700000Y-101600000D03*
X163402944Y-99902944D03*
X165100000Y-99200000D03*
X166797056Y-99902944D03*
%TD*%
D15*
%TO.P,REF\u002A\u002A,1*%
%TO.N,N/C*%
X91440000Y-31750000D03*
D14*
X93840000Y-31750000D03*
X93137056Y-33447056D03*
X91440000Y-34150000D03*
X89742944Y-33447056D03*
X89040000Y-31750000D03*
X89742944Y-30052944D03*
X91440000Y-29350000D03*
X93137056Y-30052944D03*
%TD*%
D15*
%TO.P,REF\u002A\u002A,1*%
%TO.N,N/C*%
X165100000Y-31750000D03*
D14*
X167500000Y-31750000D03*
X166797056Y-33447056D03*
X165100000Y-34150000D03*
X163402944Y-33447056D03*
X162700000Y-31750000D03*
X163402944Y-30052944D03*
X165100000Y-29350000D03*
X166797056Y-30052944D03*
%TD*%
D16*
%TO.P,J14,4*%
%TO.N,GND*%
X165100000Y-40960000D03*
%TO.P,J14,3*%
%TO.N,GPIO27*%
X165100000Y-45960000D03*
%TO.P,J14,2*%
%TO.N,GPIO26*%
X165100000Y-50960000D03*
%TO.P,J14,1*%
%TO.N,+3V3*%
X165100000Y-55960000D03*
%TD*%
%TO.P,J4,2*%
%TO.N,+5V*%
X91186000Y-93472000D03*
%TO.P,J4,1*%
%TO.N,GND*%
X91186000Y-88472000D03*
%TD*%
D17*
%TO.P,J2,3*%
%TO.N,GPIO33*%
X148350000Y-30480000D03*
%TO.P,J2,2*%
%TO.N,+3V3*%
X143350000Y-30480000D03*
%TO.P,J2,1*%
%TO.N,GND*%
X138350000Y-30480000D03*
%TD*%
%TO.P,J1,3*%
%TO.N,GPIO34*%
X138670000Y-102870000D03*
%TO.P,J1,2*%
%TO.N,+3V3*%
X143670000Y-102870000D03*
%TO.P,J1,1*%
%TO.N,GND*%
X148670000Y-102870000D03*
%TD*%
D16*
%TO.P,J8,3*%
%TO.N,GPIO35*%
X165100000Y-73420000D03*
%TO.P,J8,2*%
%TO.N,+3V3*%
X165100000Y-68420000D03*
%TO.P,J8,1*%
%TO.N,GND*%
X165100000Y-63420000D03*
%TD*%
D13*
%TO.P,R1,1*%
%TO.N,GPIO12*%
X123190000Y-90170000D03*
D18*
%TO.P,R1,2*%
%TO.N,Net-(Q1-Pad2)*%
X123190000Y-97790000D03*
%TD*%
D16*
%TO.P,J3,3*%
%TO.N,GPIO32*%
X165100000Y-92470000D03*
%TO.P,J3,2*%
%TO.N,+3V3*%
X165100000Y-87470000D03*
%TO.P,J3,1*%
%TO.N,GND*%
X165100000Y-82470000D03*
%TD*%
D18*
%TO.P,R4,2*%
%TO.N,Net-(Q4-Pad2)*%
X123190000Y-36830000D03*
D13*
%TO.P,R4,1*%
%TO.N,GPIO16*%
X123190000Y-29210000D03*
%TD*%
D18*
%TO.P,R2,2*%
%TO.N,Net-(Q2-Pad2)*%
X123190000Y-77470000D03*
D13*
%TO.P,R2,1*%
%TO.N,GPIO13*%
X123190000Y-69850000D03*
%TD*%
D18*
%TO.P,R3,2*%
%TO.N,Net-(Q3-Pad2)*%
X123190000Y-57150000D03*
D13*
%TO.P,R3,1*%
%TO.N,GPIO17*%
X123190000Y-49530000D03*
%TD*%
D19*
%TO.P,Q4,1*%
%TO.N,RelayS4*%
X123190000Y-45720000D03*
D20*
%TO.P,Q4,3*%
%TO.N,GND*%
X123190000Y-40640000D03*
%TO.P,Q4,2*%
%TO.N,Net-(Q4-Pad2)*%
X123190000Y-43180000D03*
%TD*%
D19*
%TO.P,Q3,1*%
%TO.N,RelayS3*%
X123190000Y-66040000D03*
D20*
%TO.P,Q3,3*%
%TO.N,GND*%
X123190000Y-60960000D03*
%TO.P,Q3,2*%
%TO.N,Net-(Q3-Pad2)*%
X123190000Y-63500000D03*
%TD*%
D19*
%TO.P,Q2,1*%
%TO.N,RelayS2*%
X123190000Y-86360000D03*
D20*
%TO.P,Q2,3*%
%TO.N,GND*%
X123190000Y-81280000D03*
%TO.P,Q2,2*%
%TO.N,Net-(Q2-Pad2)*%
X123190000Y-83820000D03*
%TD*%
D19*
%TO.P,Q1,1*%
%TO.N,RelayS1*%
X123190000Y-106680000D03*
D20*
%TO.P,Q1,3*%
%TO.N,GND*%
X123190000Y-101600000D03*
%TO.P,Q1,2*%
%TO.N,Net-(Q1-Pad2)*%
X123190000Y-104140000D03*
%TD*%
D16*
%TO.P,J5,8*%
%TO.N,GND*%
X91440000Y-40010000D03*
%TO.P,J5,7*%
%TO.N,M4*%
X91440000Y-45010000D03*
%TO.P,J5,6*%
%TO.N,GND*%
X91440000Y-50010000D03*
%TO.P,J5,5*%
%TO.N,M3*%
X91440000Y-55010000D03*
%TO.P,J5,4*%
%TO.N,GND*%
X91440000Y-60010000D03*
%TO.P,J5,3*%
%TO.N,M2*%
X91440000Y-65010000D03*
%TO.P,J5,2*%
%TO.N,GND*%
X91440000Y-70010000D03*
%TO.P,J5,1*%
%TO.N,M1*%
X91440000Y-75010000D03*
%TD*%
D21*
%TO.P,U1,38*%
%TO.N,Net-(U1-Pad38)*%
X130810000Y-41350000D03*
%TO.P,U1,37*%
%TO.N,Net-(U1-Pad37)*%
X130810000Y-43890000D03*
%TO.P,U1,36*%
%TO.N,Net-(U1-Pad36)*%
X130810000Y-46430000D03*
%TO.P,U1,35*%
%TO.N,Net-(U1-Pad35)*%
X130810000Y-48970000D03*
%TO.P,U1,34*%
%TO.N,Net-(U1-Pad34)*%
X130810000Y-51510000D03*
%TO.P,U1,33*%
%TO.N,Net-(U1-Pad33)*%
X130810000Y-54050000D03*
%TO.P,U1,32*%
%TO.N,Net-(U1-Pad32)*%
X130810000Y-56590000D03*
%TO.P,U1,31*%
%TO.N,GPIO16*%
X130810000Y-59130000D03*
%TO.P,U1,30*%
%TO.N,GPIO17*%
X130810000Y-61670000D03*
%TO.P,U1,29*%
%TO.N,Net-(U1-Pad29)*%
X130810000Y-64210000D03*
%TO.P,U1,28*%
%TO.N,Net-(U1-Pad28)*%
X130810000Y-66750000D03*
%TO.P,U1,27*%
%TO.N,Net-(U1-Pad27)*%
X130810000Y-69290000D03*
%TO.P,U1,26*%
%TO.N,GND*%
X130810000Y-71830000D03*
%TO.P,U1,25*%
%TO.N,GPIO21*%
X130810000Y-74370000D03*
%TO.P,U1,24*%
%TO.N,Net-(U1-Pad24)*%
X130810000Y-76910000D03*
%TO.P,U1,23*%
%TO.N,Net-(U1-Pad23)*%
X130810000Y-79450000D03*
%TO.P,U1,22*%
%TO.N,GPIO22*%
X130810000Y-81990000D03*
%TO.P,U1,21*%
%TO.N,Net-(U1-Pad21)*%
X130810000Y-84530000D03*
%TO.P,U1,20*%
%TO.N,GND*%
X130810000Y-87070000D03*
%TO.P,U1,18*%
%TO.N,Net-(U1-Pad18)*%
X156210000Y-43890000D03*
%TO.P,U1,17*%
%TO.N,Net-(U1-Pad17)*%
X156210000Y-46430000D03*
%TO.P,U1,16*%
%TO.N,Net-(U1-Pad16)*%
X156210000Y-48970000D03*
%TO.P,U1,15*%
%TO.N,GPIO13*%
X156210000Y-51510000D03*
%TO.P,U1,14*%
%TO.N,GND*%
X156210000Y-54050000D03*
%TO.P,U1,13*%
%TO.N,GPIO12*%
X156210000Y-56590000D03*
%TO.P,U1,12*%
%TO.N,Net-(U1-Pad12)*%
X156210000Y-59130000D03*
%TO.P,U1,11*%
%TO.N,GPIO27*%
X156210000Y-61670000D03*
%TO.P,U1,10*%
%TO.N,GPIO26*%
X156210000Y-64210000D03*
%TO.P,U1,9*%
%TO.N,Net-(U1-Pad9)*%
X156210000Y-66750000D03*
%TO.P,U1,8*%
%TO.N,GPIO33*%
X156210000Y-69290000D03*
%TO.P,U1,7*%
%TO.N,GPIO32*%
X156210000Y-71830000D03*
%TO.P,U1,6*%
%TO.N,GPIO35*%
X156210000Y-74370000D03*
%TO.P,U1,5*%
%TO.N,GPIO34*%
X156210000Y-76910000D03*
%TO.P,U1,4*%
%TO.N,Net-(U1-Pad4)*%
X156210000Y-79450000D03*
%TO.P,U1,3*%
%TO.N,Net-(U1-Pad3)*%
X156210000Y-81990000D03*
%TO.P,U1,19*%
%TO.N,+5V*%
X156210000Y-41350000D03*
%TO.P,U1,2*%
%TO.N,Net-(U1-Pad2)*%
X156210000Y-84530000D03*
D22*
%TO.P,U1,1*%
%TO.N,+3V3*%
X156210000Y-87070000D03*
%TD*%
D23*
%TO.P,K4,A1*%
%TO.N,+5V*%
X103120000Y-29560000D03*
D24*
%TO.P,K4,COM*%
%TO.N,M4*%
X101120000Y-35560000D03*
D25*
%TO.P,K4,A2*%
%TO.N,RelayS4*%
X103120000Y-41560000D03*
%TO.P,K4,NO*%
%TO.N,+5V*%
X115320000Y-41560000D03*
%TO.P,K4,NC*%
%TO.N,Net-(K4-PadNC)*%
X115320000Y-29560000D03*
%TD*%
%TO.P,K3,NC*%
%TO.N,Net-(K3-PadNC)*%
X115320000Y-49880000D03*
%TO.P,K3,NO*%
%TO.N,+5V*%
X115320000Y-61880000D03*
%TO.P,K3,A2*%
%TO.N,RelayS3*%
X103120000Y-61880000D03*
D24*
%TO.P,K3,COM*%
%TO.N,M3*%
X101120000Y-55880000D03*
D23*
%TO.P,K3,A1*%
%TO.N,+5V*%
X103120000Y-49880000D03*
%TD*%
D25*
%TO.P,K2,NC*%
%TO.N,Net-(K2-PadNC)*%
X115320000Y-70200000D03*
%TO.P,K2,NO*%
%TO.N,+5V*%
X115320000Y-82200000D03*
%TO.P,K2,A2*%
%TO.N,RelayS2*%
X103120000Y-82200000D03*
D24*
%TO.P,K2,COM*%
%TO.N,M2*%
X101120000Y-76200000D03*
D23*
%TO.P,K2,A1*%
%TO.N,+5V*%
X103120000Y-70200000D03*
%TD*%
D25*
%TO.P,K1,NC*%
%TO.N,Net-(K1-PadNC)*%
X115320000Y-90520000D03*
%TO.P,K1,NO*%
%TO.N,+5V*%
X115320000Y-102520000D03*
%TO.P,K1,A2*%
%TO.N,RelayS1*%
X103120000Y-102520000D03*
D24*
%TO.P,K1,COM*%
%TO.N,M1*%
X101120000Y-96520000D03*
D23*
%TO.P,K1,A1*%
%TO.N,+5V*%
X103120000Y-90520000D03*
%TD*%
D10*
%TO.P,D3,2*%
%TO.N,RelayS3*%
X105410000Y-66040000D03*
D11*
%TO.P,D3,1*%
%TO.N,+5V*%
X113030000Y-66040000D03*
%TD*%
D10*
%TO.P,D2,2*%
%TO.N,RelayS2*%
X105410000Y-86360000D03*
D11*
%TO.P,D2,1*%
%TO.N,+5V*%
X113030000Y-86360000D03*
%TD*%
D10*
%TO.P,D1,2*%
%TO.N,RelayS1*%
X105410000Y-106680000D03*
D11*
%TO.P,D1,1*%
%TO.N,+5V*%
X113030000Y-106680000D03*
%TD*%
D26*
%TO.N,GPIO33*%
X148336000Y-41402000D03*
%TD*%
D27*
%TO.N,RelayS1*%
X103120000Y-104390000D02*
X105410000Y-106680000D01*
X103120000Y-102520000D02*
X103120000Y-104390000D01*
X121389999Y-104879999D02*
X123190000Y-106680000D01*
X107210001Y-104879999D02*
X121389999Y-104879999D01*
X105410000Y-106680000D02*
X107210001Y-104879999D01*
%TO.N,+5V*%
X103120000Y-70200000D02*
X111410000Y-70200000D01*
X113030000Y-68580000D02*
X113030000Y-66040000D01*
X111410000Y-70200000D02*
X113030000Y-68580000D01*
X111410000Y-78290000D02*
X115320000Y-82200000D01*
X111410000Y-70200000D02*
X111410000Y-78290000D01*
X113030000Y-48260000D02*
X113030000Y-45720000D01*
X111410000Y-49880000D02*
X113030000Y-48260000D01*
X111410000Y-57970000D02*
X115320000Y-61880000D01*
X111410000Y-49880000D02*
X111410000Y-57970000D01*
X103320000Y-29560000D02*
X115320000Y-41560000D01*
X103120000Y-29560000D02*
X103320000Y-29560000D01*
X103120000Y-49880000D02*
X111410000Y-49880000D01*
X110902000Y-98102000D02*
X115320000Y-102520000D01*
X110902000Y-90520000D02*
X110902000Y-98102000D01*
X113030000Y-88392000D02*
X113030000Y-86360000D01*
X110902000Y-90520000D02*
X113030000Y-88392000D01*
X103120000Y-90520000D02*
X110902000Y-90520000D01*
%TO.N,RelayS2*%
X103120000Y-84070000D02*
X105410000Y-86360000D01*
X103120000Y-82200000D02*
X103120000Y-84070000D01*
X107210001Y-84559999D02*
X121389999Y-84559999D01*
X121389999Y-84559999D02*
X123190000Y-86360000D01*
X105410000Y-86360000D02*
X107210001Y-84559999D01*
%TO.N,RelayS3*%
X103120000Y-63750000D02*
X105410000Y-66040000D01*
X103120000Y-61880000D02*
X103120000Y-63750000D01*
X121389999Y-64239999D02*
X123190000Y-66040000D01*
X107210001Y-64239999D02*
X121389999Y-64239999D01*
X105410000Y-66040000D02*
X107210001Y-64239999D01*
%TO.N,RelayS4*%
X103120000Y-43430000D02*
X105410000Y-45720000D01*
X103120000Y-41560000D02*
X103120000Y-43430000D01*
X121389999Y-43919999D02*
X123190000Y-45720000D01*
X107210001Y-43919999D02*
X121389999Y-43919999D01*
X105410000Y-45720000D02*
X107210001Y-43919999D01*
D28*
%TO.N,GPIO34*%
X138670000Y-94450000D02*
X138670000Y-102870000D01*
X156210000Y-76910000D02*
X138670000Y-94450000D01*
%TO.N,+3V3*%
X164700000Y-87070000D02*
X165100000Y-87470000D01*
X156210000Y-87070000D02*
X164700000Y-87070000D01*
X156210000Y-90330000D02*
X143670000Y-102870000D01*
X156210000Y-87070000D02*
X156210000Y-90330000D01*
X165100000Y-68420000D02*
X167292000Y-68420000D01*
X167292000Y-68420000D02*
X168402000Y-69530000D01*
X168402000Y-84168000D02*
X165100000Y-87470000D01*
X168402000Y-69530000D02*
X168402000Y-84168000D01*
X165100000Y-55960000D02*
X161464000Y-55960000D01*
X161464000Y-55960000D02*
X160020000Y-57404000D01*
X160020000Y-57404000D02*
X160020000Y-66548000D01*
X161892000Y-68420000D02*
X165100000Y-68420000D01*
X160020000Y-66548000D02*
X161892000Y-68420000D01*
%TO.N,GPIO33*%
X148336000Y-30494000D02*
X148350000Y-30480000D01*
X148336000Y-41402000D02*
X148336000Y-30494000D01*
%TO.N,GPIO35*%
X165100000Y-73420000D02*
X159498000Y-73420000D01*
X158548000Y-74370000D02*
X156210000Y-74370000D01*
X159498000Y-73420000D02*
X158548000Y-74370000D01*
%TO.N,GPIO27*%
X158242000Y-61214000D02*
X157786000Y-61670000D01*
X157786000Y-61670000D02*
X156210000Y-61670000D01*
X158242000Y-52818000D02*
X158242000Y-61214000D01*
X165100000Y-45960000D02*
X158242000Y-52818000D01*
%TO.N,GPIO26*%
X165100000Y-50960000D02*
X160736410Y-50960000D01*
X158692010Y-53004400D02*
X158692010Y-62795990D01*
X160736410Y-50960000D02*
X158692010Y-53004400D01*
X157278000Y-64210000D02*
X156210000Y-64210000D01*
X158692010Y-62795990D02*
X157278000Y-64210000D01*
D27*
%TO.N,M1*%
X91440000Y-75010000D02*
X98044000Y-81614000D01*
X98044000Y-93444000D02*
X101120000Y-96520000D01*
X98044000Y-81614000D02*
X98044000Y-93444000D01*
%TO.N,M2*%
X91440000Y-65010000D02*
X91680000Y-65010000D01*
X91680000Y-65010000D02*
X98044000Y-71374000D01*
X98044000Y-73124000D02*
X101120000Y-76200000D01*
X98044000Y-71374000D02*
X98044000Y-73124000D01*
%TO.N,M3*%
X91440000Y-55010000D02*
X96666000Y-55010000D01*
X97536000Y-55880000D02*
X101120000Y-55880000D01*
X96666000Y-55010000D02*
X97536000Y-55880000D01*
%TO.N,M4*%
X91670000Y-45010000D02*
X101120000Y-35560000D01*
X91440000Y-45010000D02*
X91670000Y-45010000D01*
D28*
%TO.N,Net-(Q1-Pad2)*%
X124265001Y-103064999D02*
X124265001Y-98865001D01*
X124265001Y-98865001D02*
X123190000Y-97790000D01*
X123190000Y-104140000D02*
X124265001Y-103064999D01*
%TO.N,GPIO12*%
X154244600Y-56590000D02*
X156210000Y-56590000D01*
X151130000Y-59704600D02*
X154244600Y-56590000D01*
X151130000Y-74930000D02*
X151130000Y-59704600D01*
X135890000Y-90170000D02*
X151130000Y-74930000D01*
X123190000Y-90170000D02*
X135890000Y-90170000D01*
%TO.N,Net-(Q2-Pad2)*%
X124265001Y-78545001D02*
X123190000Y-77470000D01*
X124265001Y-82744999D02*
X124265001Y-78545001D01*
X123190000Y-83820000D02*
X124265001Y-82744999D01*
%TO.N,GPIO13*%
X125184999Y-67855001D02*
X137884999Y-67855001D01*
X123190000Y-69850000D02*
X125184999Y-67855001D01*
X154230000Y-51510000D02*
X156210000Y-51510000D01*
X137884999Y-67855001D02*
X154230000Y-51510000D01*
%TO.N,Net-(Q3-Pad2)*%
X124265001Y-58225001D02*
X123190000Y-57150000D01*
X124265001Y-62424999D02*
X124265001Y-58225001D01*
X123190000Y-63500000D02*
X124265001Y-62424999D01*
%TO.N,GPIO17*%
X123190000Y-49530000D02*
X125730000Y-49530000D01*
X125730000Y-49530000D02*
X127762000Y-51562000D01*
X127762000Y-51562000D02*
X127762000Y-60198000D01*
X129234000Y-61670000D02*
X130810000Y-61670000D01*
X127762000Y-60198000D02*
X129234000Y-61670000D01*
%TO.N,Net-(Q4-Pad2)*%
X124265001Y-37905001D02*
X123190000Y-36830000D01*
X124265001Y-42104999D02*
X124265001Y-37905001D01*
X123190000Y-43180000D02*
X124265001Y-42104999D01*
%TO.N,GPIO16*%
X129234000Y-59130000D02*
X130810000Y-59130000D01*
X128524000Y-58420000D02*
X129234000Y-59130000D01*
X128524000Y-34544000D02*
X128524000Y-58420000D01*
X123190000Y-29210000D02*
X128524000Y-34544000D01*
%TD*%
M02*
